<svg width="18" height="18" viewBox="0 0 18 18" fill="none" xmlns="http://www.w3.org/2000/svg">
    <g>
        <path d="M16.05 8.4L14.97 6.96C14.8745 6.8327 14.8335 6.67268 14.856 6.51515C14.8785 6.35762 14.9627 6.21548 15.09 6.12C15.2173 6.02452 15.3773 5.98353 15.5349 6.00603C15.6924 6.02854 15.8345 6.1127 15.93 6.24L17.7264 8.6352L17.7342 8.6454L18 9L17.7342 9.354C17.7316 9.35763 17.729 9.36123 17.7264 9.3648L15.93 11.76C15.8827 11.823 15.8235 11.8761 15.7557 11.9163C15.6879 11.9564 15.6129 11.9828 15.5349 11.994C15.4569 12.0051 15.3774 12.0008 15.3011 11.9812C15.2248 11.9617 15.153 11.9273 15.09 11.88C15.027 11.8327 14.9739 11.7735 14.9337 11.7057C14.8936 11.6379 14.8672 11.5629 14.856 11.4849C14.8449 11.4069 14.8492 11.3274 14.8688 11.2511C14.8883 11.1748 14.9227 11.103 14.97 11.04L16.05 9.6H0.6C0.44087 9.6 0.288258 9.53679 0.175736 9.42427C0.0632141 9.31174 0 9.15913 0 9C0 8.84087 0.0632141 8.68826 0.175736 8.57574C0.288258 8.46322 0.44087 8.4 0.6 8.4H16.05Z" fill="white"/>
    </g>
</svg>
