<svg width="48" height="48" viewBox="0 0 48 48" fill="none" xmlns="http://www.w3.org/2000/svg">
    <g>
        <path
            d="M18.72 39.472C17.9993 39.9676 17.1568 40.257 16.2837 40.3086C15.4105 40.3603 14.5398 40.1724 13.7656 39.7653C12.9915 39.3581 12.3433 38.7471 11.8911 37.9983C11.4389 37.2496 11.2 36.3915 11.2 35.5168V12.4832C11.2 11.6085 11.4389 10.7504 11.8911 10.0016C12.3433 9.25284 12.9915 8.64186 13.7656 8.23469C14.5398 7.82751 15.4105 7.63962 16.2837 7.69131C17.1568 7.743 17.9993 8.03231 18.72 8.52798L35.472 20.0448C36.1135 20.4859 36.6381 21.0764 37.0006 21.7655C37.363 22.4546 37.5524 23.2214 37.5524 24C37.5524 24.7785 37.363 25.5454 37.0006 26.2345C36.6381 26.9235 36.1135 27.5141 35.472 27.9552L18.72 39.472ZM34.0704 24.9072C34.1895 24.734 34.2733 24.539 34.317 24.3334C34.3608 24.1277 34.3635 23.9155 34.3252 23.7088C34.2868 23.5022 34.2082 23.305 34.0936 23.1288C33.9791 22.9525 33.8309 22.8006 33.6576 22.6816L16.9056 11.1648C16.6654 10.9998 16.3847 10.9037 16.0938 10.8866C15.8029 10.8695 15.5128 10.9322 15.255 11.0679C14.9971 11.2036 14.7812 11.4071 14.6305 11.6565C14.4798 11.9059 14.4001 12.1918 14.4 12.4832V35.5168C14.3999 35.8084 14.4796 36.0946 14.6303 36.3442C14.7811 36.5939 14.9972 36.7976 15.2553 36.9334C15.5135 37.0691 15.8038 37.1317 16.095 37.1144C16.3861 37.0971 16.667 37.0005 16.9072 36.8352L33.6592 25.3184C33.8202 25.2076 33.9596 25.0682 34.0704 24.9072Z"
            fill="#ffffff" />
    </g>
</svg>