<svg width="136" height="24" viewBox="0 0 136 24" fill="none" xmlns="http://www.w3.org/2000/svg">
<g clip-path="url(#clip0_0_1)">
<path d="M12 17.27L18.18 21L16.54 13.97L22 9.24L14.81 8.63L12 2L9.19 8.63L2 9.24L7.46 13.97L5.82 21L12 17.27Z" fill="#EAB308"/>
</g>
<g clip-path="url(#clip1_0_1)">
<path d="M40 17.27L46.18 21L44.54 13.97L50 9.24L42.81 8.63L40 2L37.19 8.63L30 9.24L35.46 13.97L33.82 21L40 17.27Z" fill="#EAB308"/>
</g>
<g clip-path="url(#clip2_0_1)">
<path d="M68 17.27L74.18 21L72.54 13.97L78 9.24L70.81 8.63L68 2L65.19 8.63L58 9.24L63.46 13.97L61.82 21L68 17.27Z" fill="#EAB308"/>
</g>
<g clip-path="url(#clip3_0_1)">
<path d="M96 17.27L102.18 21L100.54 13.97L106 9.24L98.81 8.63L96 2L93.19 8.63L86 9.24L91.46 13.97L89.82 21L96 17.27Z" fill="#EAB308"/>
</g>
<g clip-path="url(#clip4_0_1)">
<path d="M124 17.27L130.18 21L128.54 13.97L134 9.24L126.81 8.63L124 2L121.19 8.63L114 9.24L119.46 13.97L117.82 21L124 17.27Z" fill="#EAB308"/>
</g>
<defs>
<clipPath id="clip0_0_1">
<rect width="24" height="24" fill="white"/>
</clipPath>
<clipPath id="clip1_0_1">
<rect width="24" height="24" fill="white" transform="translate(28)"/>
</clipPath>
<clipPath id="clip2_0_1">
<rect width="24" height="24" fill="white" transform="translate(56)"/>
</clipPath>
<clipPath id="clip3_0_1">
<rect width="24" height="24" fill="white" transform="translate(84)"/>
</clipPath>
<clipPath id="clip4_0_1">
<rect width="24" height="24" fill="white" transform="translate(112)"/>
</clipPath>
</defs>
</svg>
